<svg width="654.54" height="541.76" viewBox="0 0 173.18 143.34" xmlns="http://www.w3.org/2000/svg" xmlns:xlink="http://www.w3.org/1999/xlink">
  <defs>
    <linearGradient id="e">
      <stop stop-opacity=".49" offset="0"/>
      <stop stop-opacity="0" offset="1"/>
    </linearGradient>
    <linearGradient id="d">
      <stop offset="0"/>
      <stop stop-opacity="0" offset="1"/>
    </linearGradient>
    <linearGradient id="c">
      <stop stop-color="#b3b3b3" stop-opacity="0" offset="0"/>
      <stop stop-color="#fff" offset=".13"/>
      <stop stop-color="#b3b3b3" stop-opacity="0" offset="1"/>
    </linearGradient>
    <linearGradient id="b">
      <stop stop-color="#fff" stop-opacity=".48" offset="0"/>
      <stop offset=".1"/>
      <stop stop-color="#404040" offset=".81"/>
      <stop offset=".87"/>
      <stop stop-color="#fff" offset="1"/>
    </linearGradient>
    <linearGradient id="a">
      <stop stop-color="#ff2a2a" offset="0"/>
      <stop stop-color="#ff2a2a" stop-opacity="0" offset="1"/>
    </linearGradient>
    <radialGradient id="f" cx="40.31" cy="83.72" r="1.46" gradientTransform="translate(-22.1 -48.14) scale(1.5494)" gradientUnits="userSpaceOnUse" xlink:href="#a"/>
    <radialGradient id="g" cx="40.31" cy="83.72" r="1.46" gradientTransform="translate(-99.61 -209.14) scale(3.4725)" gradientUnits="userSpaceOnUse" xlink:href="#a"/>
    <linearGradient id="p" x1="104.32" x2="104.32" y1="16.92" y2="29.77" gradientTransform="matrix(1 0 0 .91161 0 1.5)" gradientUnits="userSpaceOnUse">
      <stop stop-color="#b3b3b3" stop-opacity="0" offset="0"/>
      <stop stop-color="#fff" stop-opacity=".28" offset=".19"/>
      <stop stop-color="#b3b3b3" stop-opacity="0" offset="1"/>
    </linearGradient>
    <linearGradient id="o" x1="114.79" x2="114.79" y1="27.73" y2="30.13" gradientUnits="userSpaceOnUse" xlink:href="#b"/>
    <linearGradient id="m" x1="177.3" x2="179.64" y1="22.28" y2="22.28" gradientUnits="userSpaceOnUse" xlink:href="#b"/>
    <linearGradient id="n" x1="177.3" x2="179.64" y1="22.28" y2="22.28" gradientTransform="translate(-146.35)" gradientUnits="userSpaceOnUse" xlink:href="#b"/>
    <linearGradient id="q" x1="18.57" x2="32.21" y1="135.3" y2="135.3" gradientTransform="matrix(1 0 0 .91161 0 1.5)" gradientUnits="userSpaceOnUse" xlink:href="#c"/>
    <linearGradient id="r" x1="18.57" x2="32.21" y1="135.3" y2="135.3" gradientTransform="matrix(1 0 0 .91161 -210 1.5)" gradientUnits="userSpaceOnUse" xlink:href="#c"/>
    <linearGradient id="s" x1="189.51" x2="179.06" y1="18.43" y2="27.93" gradientTransform="matrix(1 0 0 .91161 -210 1.5)" gradientUnits="userSpaceOnUse" xlink:href="#c"/>
    <linearGradient id="t" x1="189.51" x2="179.06" y1="18.43" y2="27.93" gradientTransform="matrix(1 0 0 .91161 0 1.5)" gradientUnits="userSpaceOnUse" xlink:href="#c"/>
    <linearGradient id="h" x1="106.97" x2="106.97" y1="37.33" y2="38.84" gradientUnits="userSpaceOnUse" xlink:href="#d"/>
    <linearGradient id="i" x1="32.51" x2="33.83" y1="88.55" y2="88.55" gradientUnits="userSpaceOnUse" xlink:href="#e"/>
    <radialGradient id="j" cx="397.86" cy="350.88" r="278.19" gradientTransform="matrix(1 0 0 .76231 0 83.4)" gradientUnits="userSpaceOnUse">
      <stop stop-color="#fff" stop-opacity="0" offset="0"/>
      <stop stop-color="#fff" stop-opacity=".5" offset=".5"/>
      <stop stop-color="#fff" offset="1"/>
    </radialGradient>
    <linearGradient id="k" x1="43.1" x2="43.1" y1="18.93" y2="25.86" gradientUnits="userSpaceOnUse">
      <stop stop-opacity=".3" offset="0"/>
      <stop offset=".02"/>
      <stop stop-opacity="0" offset=".05"/>
      <stop stop-opacity="0" offset="1"/>
    </linearGradient>
    <linearGradient id="l" x1="43.1" x2="43.1" y1="18.93" y2="25.86" gradientTransform="translate(0 -44.76)" gradientUnits="userSpaceOnUse">
      <stop stop-color="#fff" stop-opacity=".46" offset="0"/>
      <stop stop-color="#fff" offset=".01"/>
      <stop stop-opacity=".45" offset=".03"/>
      <stop stop-opacity="0" offset=".07"/>
      <stop stop-opacity="0" offset="1"/>
    </linearGradient>
  </defs>
  <rect x="18.41" y="16.92" width="173.18" height="143.34" rx="7.93" fill="#b3b3b3" transform="translate(-18.4 -16.92)"/>
  <g opacity=".42">
    <g transform="translate(-18.4 -16.92)">
      <ellipse cx="148.21" cy="114.35" rx="30.13" ry="34.07"/>
      <rect x="32.19" y="37.26" width="146.15" height="79.48" rx="3.99" ry="5.19"/>
      <rect x="32.19" y="102.42" width="121.46" height="46" rx="3.96" ry="4.51"/>
    </g>
    <text x="38.21" y="88.61" font-family="sans-serif" font-size="10.58" letter-spacing="0" stroke-width=".26" word-spacing="0" style="line-height:1.25" transform="translate(-18.4 -16.92)">
      <tspan x="38.21" y="88.61" fill="#fff" font-family="Futura" font-size="2.82" letter-spacing=".01">BATTERY</tspan>
    </text>
  </g>
  <rect x="58.2" y="50.47" width="93.6" height="84.32" rx="1.07" ry="1.07" transform="translate(-18.4 -16.92)"/>
  <path fill="#80004a" d="M20.44 25.98h40.63v.31H20.44z"/>
  <path fill="#000061" d="M20.44 27.55h40.61v.31h-40.6z"/>
  <path fill="#80004a" d="M136.34 25.98h17.5v.31h-17.5z"/>
  <path fill="#000061" d="M136.3 27.55h17.54v.31H136.3z"/>
  <text x="81.17" y="45.34" fill="#fff" fill-opacity=".81" font-family="sans-serif" font-size="3.88" letter-spacing="0" stroke-width=".26" word-spacing="1.04" style="line-height:1.25" transform="translate(-18.4 -16.92)">
    <tspan x="81.17" y="45.34" font-family="Futura" letter-spacing=".13" word-spacing=".58">DOT MATRIX WITH STEREO SOUND</tspan>
  </text>
  <g transform="translate(-18.4 -16.92)" fill-opacity=".81" opacity=".72">
    <circle cx="40.38" cy="81.56" r="2.23"/>
    <circle cx="40.4" cy="81.61" r="1.7" fill="#333"/>
  </g>
  <circle cx="40.35" cy="81.58" r="2.26" fill="url(#f)" transform="translate(-18.4 -16.92)"/>
  <circle cx="40.35" cy="81.58" r="5.07" fill="url(#g)" transform="translate(-18.4 -16.92)" opacity=".38"/>
  <g opacity=".48">
    <g fill="url(#h)" transform="translate(-18.4 -16.92)">
      <ellipse cx="148.21" cy="114.35" rx="30.13" ry="34.07"/>
      <rect x="32.19" y="37.26" width="146.15" height="79.48" rx="3.99" ry="5.19"/>
      <rect x="32.19" y="102.42" width="121.46" height="46" rx="3.96" ry="4.51"/>
    </g>
    <g fill="url(#i)" opacity=".49" transform="translate(-18.4 -16.92)">
      <ellipse cx="148.21" cy="114.35" rx="30.13" ry="34.07"/>
      <rect x="32.19" y="37.26" width="146.15" height="79.48" rx="3.99" ry="5.19"/>
      <rect x="32.19" y="102.42" width="121.46" height="46" rx="3.96" ry="4.51"/>
    </g>
    <g fill="url(#i)" opacity=".49" transform="translate(-18.4 -16.92)">
      <ellipse cx="148.21" cy="114.35" rx="30.13" ry="34.07"/>
      <rect x="32.19" y="37.26" width="146.15" height="79.48" rx="3.99" ry="5.19"/>
      <rect x="32.19" y="102.42" width="121.46" height="46" rx="3.96" ry="4.51"/>
    </g>
    <path transform="translate(-18.4 -16.92) scale(.26458)" d="M136.73 140.82c-8.35 0-15.07 8.75-15.07 19.63v383.47c0 9.43 6.67 17.03 14.95 17.03H565.8c1.18 0 2.32-.17 3.41-.46a113.89 128.78 0 0 0 104.85-128.32 113.89 128.78 0 0 0-.23-7.27c.14-1.07.23-2.17.23-3.3V160.45c0-10.88-6.72-19.63-15.06-19.63z" fill="none" opacity=".27" stroke="url(#j)" stroke-width="4.01"/>
  </g>
  <g transform="translate(-18.4 -16.92)" opacity=".18">
    <rect x="35.8" y="18.92" width="14.5" height="6.92" rx="2.17" ry="2.35"/>
    <path d="M38.05 16.92h4.28v2.92h-4.28z"/>
    <path fill="#fff" opacity=".48" d="M39.14 16.92h.66v2.04h-.66zM40.58 16.92h.66v2.04h-.66z"/>
  </g>
  <text x="39.26" y="23.32" fill="#fff" font-family="sans-serif" font-size="8.53" letter-spacing="0" stroke-width=".21" word-spacing="0" style="line-height:1.25" transform="translate(-18.4 -16.92)" opacity=".82">
    <tspan x="39.26" y="23.32" font-family="FUTURa" font-size="2.84">RESET</tspan>
  </text>
  <rect x="35.8" y="18.92" width="14.5" height="6.92" rx="2.17" ry="2.35" fill="url(#k)" transform="translate(-18.4 -16.92)" opacity=".21"/>
  <g opacity=".41">
    <rect transform="matrix(1 0 0 -1 -18.4 -16.92)" x="35.8" y="-25.84" width="14.5" height="6.92" rx="2.17" ry="2.35" fill="url(#l)" opacity=".45"/>
  </g>
  <g opacity=".32">
    <path fill="url(#m)" d="M177.29 16.92h2.3v11.01h-2.3z" transform="translate(-18.4 -16.92)"/>
    <path fill="url(#n)" d="M30.94 16.92h2.3v11.01h-2.3z" transform="translate(-18.4 -16.92)"/>
  </g>
  <path fill="url(#o)" d="M18.41 27.74h173.18v2.33H18.41z" transform="translate(-18.4 -16.92)" opacity=".3"/>
  <rect x="18.41" y="16.92" width="173.18" height="143.34" rx="7.93" fill="url(#p)" transform="translate(-18.4 -16.92)" opacity=".63"/>
  <rect x="18.41" y="16.92" width="173.18" height="143.34" rx="7.93" fill="url(#q)" transform="translate(-18.4 -16.92)" opacity=".15"/>
  <g transform="translate(-18.4 -16.92)" opacity=".14">
    <rect transform="scale(-1 1)" x="-191.59" y="16.92" width="173.18" height="143.34" rx="7.93" fill="url(#r)"/>
  </g>
  <g transform="translate(-18.4 -16.92)" opacity=".2">
    <rect transform="scale(-1 1)" x="-191.59" y="16.92" width="173.18" height="143.34" rx="7.93" fill="url(#s)"/>
  </g>
  <g transform="translate(-18.4 -16.92)" opacity=".2">
    <rect x="18.41" y="16.92" width="173.18" height="143.34" rx="7.93" fill="url(#t)"/>
  </g>
</svg>
